<svg id="Layer_1" data-name="Layer 1" xmlns="http://www.w3.org/2000/svg" viewBox="0 0 749.41 373.52"><defs><style>.cls-1{fill:#333;}.cls-2{fill:#003294;}</style></defs><path class="cls-1" d="M658.3,121.49c42.29-21.81,190.12,72.05,181,190-9.15,118.37-170.54,185.83-199,162-11.63-9.73-3.67-36.87-1-46,24.13-82.35,135.46-97.68,132-133-3.2-32.6-84-34.51-126-86C623.3,181.49,637.38,132.28,658.3,121.49Z" transform="translate(-90.3 -113.61)"/><path class="cls-2" d="M705.87,138.31c33.74,3.16,127.92,66.14,121.71,174.07C821.33,420.81,720.39,452.29,693.77,460.8c-14.4,4.6-21.54-4.13-26.89-21.6-15.34-50,117.3-110,115-142.39-2.15-29.87-73.59-56.87-113.19-94.3C648.13,183.11,676.69,135.58,705.87,138.31Z" transform="translate(-90.3 -113.61)"/><path class="cls-1" d="M345.5,125.5c24.14-21,47.17-5.12,134-6,82.21-.83,108.75-15.57,128,5,17.76,19,18.52,56.47,0,82-21,29-63.55-2-91,22-31.77,27.73-18.67,99.53-10,147,9.53,52.22,22.37,67.92,11,86-18,28.67-79.1,35.12-104,10-10.59-10.68-12-24.42-9-83,5.53-108.23,14.51-143.25-5-158-20.49-15.49-48.33,9.6-67-7C312.18,205.44,316.77,150.52,345.5,125.5Z" transform="translate(-90.3 -113.61)"/><path class="cls-2" d="M357.5,133.5c20.45-20.6,46.44-7.14,120-8,69.65-.81,101.69-7.15,118,13,15,18.59,24.78,51.94,0,68-27,17.48-62.86-3.41-86.12,20.07-26.92,27.18-15.88,97.93-8.47,144,8.21,51.15,18.95,66.55,9.32,84.27-15.27,28.09-67,34.41-88.11,9.8-9-10.47-10.17-23.93-7.63-81.33,4.69-106,12.29-140.37-4.23-154.82-17.36-15.18-48.94-3.76-64.76-20C328.29,190.8,333.16,158,357.5,133.5Z" transform="translate(-90.3 -113.61)"/><path class="cls-1" d="M271.7,123.49c-42.29-21.81-190.12,72.05-181,190,9.15,118.37,170.54,185.83,199,162,11.63-9.73,3.67-36.87,1-46-24.13-82.35-135.46-97.68-132-133,3.2-32.6,84.05-34.51,126-86C306.7,183.49,292.62,134.28,271.7,123.49Z" transform="translate(-90.3 -113.61)"/><path class="cls-2" d="M224.13,140.31c-33.74,3.16-127.92,66.14-121.71,174.07,6.25,108.43,107.19,139.91,133.81,148.42,14.4,4.6,21.54-4.13,26.89-21.6,15.34-50-117.3-110-115-142.39,2.15-29.87,73.59-56.87,113.19-94.3C281.87,185.11,253.31,137.58,224.13,140.31Z" transform="translate(-90.3 -113.61)"/></svg>